# xmcd
#
# Track frame offsets:
#	183
#	17698
#	32598
#	44990
#	63658
#	76783
#	90985
#	105575
#	120653
#	130520
#	147820
#	163530
#	176513
#	188560
#	204655
#	222338
#
# Disc length: 3093
#
# Revision: 5
# Processed by: cddbd v1.5.1PL0 Copyright (c) Steve Scherf et al.
# Submitted via: dBpowerAMP V4.0
# Normalized: r4:DSETVAR1,TDELIM( - )
#
DISCID=d30c1310
DTITLE=Various Artist - 16 Country Favourites
DYEAR=1993
DGENRE=Country
TTITLE0=Philomena Begley - Blanket on the ground
TTITLE1=Charley Pride - I love you because
TTITLE2=Domonic Kirwan - Oh lonesome me
TTITLE3=Daniel O'Donnell - Far far from home
TTITLE4=Mary Duff - Pick me up on your way down
TTITLE5=John Hogan - Follow me
TTITLE6=Brendan Quinn - A legend in my time
TTITLE7=Sarah Jory - Darlin'
TTITLE8=Daniel O'Donnell - A country boy like me
TTITLE9=Ray Lynam - The gambler
TTITLE10=Mick Flavin and Philomena Begley - Till a tear becomes a rose
TTITLE11=Mick Flavin - The old school yard
TTITLE12=Margo - A little more like heaven
TTITLE13=Sonny Curtis - When amarillo blows
TTITLE14=Mary Duff - Yellow roses
TTITLE15=Frank McCaffrey - Blackboard of my heart
EXTD=A collection of Country Music Favourites released for the UK market in 1993
EXTT0=
EXTT1=
EXTT2=
EXTT3=
EXTT4=
EXTT5=
EXTT6=
EXTT7=
EXTT8=
EXTT9=
EXTT10=
EXTT11=
EXTT12=
EXTT13=
EXTT14=
EXTT15=
PLAYORDER=
